<svg width="41" height="41" viewBox="0 0 41 41" fill="none" xmlns="http://www.w3.org/2000/svg">
<path d="M40.0156 20.0491C40.0156 8.93361 31.1232 0.0412598 20.0078 0.0412598C8.89235 0.0412598 0 8.93361 0 20.0491C0 29.9519 7.27556 38.238 16.9763 39.8547V25.9099H11.7217V20.0491H16.7742V15.6029C16.7742 10.5504 19.8057 7.72102 24.2519 7.72102C26.475 7.72102 28.698 8.12522 28.698 8.12522V12.9756H26.475C24.0498 12.9756 23.2414 14.5924 23.2414 16.0071V19.847H28.698L27.8897 25.9099H23.0393V39.8547C32.74 38.238 40.0156 29.9519 40.0156 20.0491Z" fill="#1877F2"/>
<path d="M27.8912 25.912L28.6996 20.0511H23.0408V16.2112C23.0408 14.5944 23.8492 13.1797 26.2744 13.1797H28.6996V8.32937C28.6996 8.32937 26.4765 7.92517 24.2534 7.92517C19.6052 7.92517 16.7758 10.7546 16.7758 15.807V20.2532H11.7233V26.1141H16.7758V40.0589C17.7863 40.261 18.7968 40.261 19.8073 40.261C20.8177 40.261 21.8282 40.261 22.8387 40.0589V25.912H27.8912Z" fill="white"/>
</svg>
