<svg width="23" height="23" viewBox="0 0 23 23"  xmlns="http://www.w3.org/2000/svg">
<path  d="M2.59709 7.82019L2.59709 5.24864C2.59709 3.79015 3.78542 2.60033 5.24209 2.60033L7.81042 2.60033L9.63125 0.777218C10.1296 0.278261 10.8004 -1.92629e-06 11.5 -1.80397e-06C12.1996 -1.68165e-06 12.8704 0.278262 13.3688 0.777218L15.1896 2.60033L17.7579 2.60033C19.2146 2.60033 20.4029 3.79015 20.4029 5.24864L20.4029 7.82019L22.2238 9.6433C22.7221 10.1423 23 10.8139 23 11.5144C23 12.2149 22.7221 12.8865 22.2238 13.3855L20.4029 15.2086L20.4029 17.7801C20.4029 19.2386 19.2146 20.4285 17.7579 20.4285L15.1896 20.4285L13.3687 22.2516C12.3721 23.2495 10.6279 23.2495 9.63125 22.2516L7.81042 20.4285L5.24208 20.4285C3.78542 20.4285 2.59708 19.2386 2.59708 17.7801L2.59708 15.2086L0.776252 13.3855C0.277918 12.8865 1.88574e-06 12.2148 2.00821e-06 11.5144C2.13068e-06 10.8139 0.277919 10.1423 0.776252 9.6433L2.59709 7.82019ZM11.5 17.2716C12.2667 17.2716 13.0046 17.1277 13.685 16.859C13.9629 16.7438 14.1354 16.4752 14.1354 16.1873C14.1354 15.8899 13.9533 15.6212 13.6754 15.5156C12.1613 14.9207 10.5417 13.5582 10.5417 11.5144C10.5417 9.47059 12.1613 8.10805 13.6754 7.51314C13.9533 7.40759 14.1354 7.13892 14.1354 6.84147C14.1354 6.55361 13.9629 6.28494 13.685 6.1698C13.0046 5.90113 12.2667 5.75719 11.5 5.75719C8.165 5.75719 5.75 8.17522 5.75 11.5144C5.75 14.8536 8.165 17.2716 11.5 17.2716Z" fill="#676055"/>
</svg>
