<svg width="29" height="23" viewBox="0 0 29 23"   xmlns="http://www.w3.org/2000/svg">
<path  d="M28.9999 18.7935C28.8842 19.1986 28.6204 19.4964 28.3225 19.7806C27.3473 20.7133 26.3902 21.6653 25.411 22.5935C24.6281 23.3355 23.4038 22.9963 23.1423 21.9722C23.0135 21.4679 23.1496 21.0231 23.5178 20.6487C23.747 20.4155 23.9683 20.1744 24.227 19.9015C24.0993 19.9015 23.9927 19.9021 23.8855 19.9015C22.5551 19.8941 21.2224 19.9355 19.8948 19.8686C16.707 19.708 13.9016 17.5595 12.8475 14.5459C12.536 13.6546 12.4129 12.7389 12.3885 11.7977C12.3261 9.38205 10.7432 7.35952 8.43704 6.76836C7.92304 6.63674 7.375 6.59192 6.84228 6.58568C5.03079 6.56412 3.21874 6.58227 1.40725 6.5749C0.440521 6.57149 -0.210207 5.72504 0.0660832 4.83319C0.230609 4.30104 0.601076 3.9805 1.15592 3.88632C1.23025 3.87384 1.3057 3.86192 1.38059 3.86249C3.47517 3.87043 5.57259 3.81086 7.66377 3.90447C11.1058 4.05822 14.1353 6.6668 14.8848 10.0356C15.0192 10.6387 15.0918 11.2662 15.106 11.884C15.1752 14.8971 17.4723 17.1732 20.49 17.1823C21.6127 17.1857 22.736 17.1828 23.8588 17.1828C23.9694 17.1828 24.0806 17.1828 24.2627 17.1828C23.9847 16.9043 23.7567 16.6768 23.5297 16.4476C23.1377 16.051 23.0021 15.5813 23.1661 15.0463C23.4486 14.1238 24.6094 13.7624 25.3174 14.4165C26.4538 15.4661 27.5527 16.5571 28.6499 17.6481C28.8144 17.8114 28.8848 18.0696 28.9982 18.284C28.9999 18.4537 28.9999 18.6233 28.9999 18.7935Z" fill="#7E756D"/>
<path  d="M29 5.48276C28.8758 5.89351 28.6029 6.19533 28.2994 6.4858C27.3309 7.41112 26.3812 8.35573 25.4088 9.27764C24.631 10.0152 23.4039 9.66683 23.1429 8.64279C23.0135 8.1356 23.1599 7.69422 23.5258 7.32262C23.7539 7.09058 23.9769 6.85343 24.2135 6.60778C24.1703 6.59927 24.1352 6.58622 24.1 6.58622C22.8269 6.58736 21.5532 6.58112 20.2802 6.59473C19.2851 6.60551 18.3722 6.90449 17.5337 7.43949C17.0259 7.76343 16.5023 7.79407 15.9928 7.45651C15.177 6.91641 15.1844 5.73806 16.0082 5.19059C17.3402 4.30499 18.813 3.87438 20.4101 3.86644C21.5799 3.86077 22.7492 3.8653 23.919 3.8653C24.0115 3.8653 24.104 3.8653 24.2628 3.8653C23.9763 3.5788 23.7312 3.34052 23.4946 3.0943C22.8887 2.46343 22.9875 1.48195 23.7017 1.00256C24.2032 0.666128 24.8869 0.681446 25.3277 1.099C26.4436 2.15651 27.546 3.22876 28.6347 4.31406C28.8054 4.48426 28.8797 4.75091 28.9989 4.9733C29 5.14293 29 5.31256 29 5.48276Z" fill="#7E756D"/>
<path  d="M4.59058 19.9099C3.55237 19.9099 2.51472 19.9156 1.47651 19.9082C0.693022 19.9026 0.137606 19.4544 0.0190338 18.7526C-0.118827 17.9385 0.50864 17.2009 1.36871 17.1924C2.48182 17.1811 3.59548 17.1901 4.70915 17.1879C5.56752 17.1856 6.42646 17.189 7.28483 17.172C8.24079 17.1527 9.11901 16.8628 9.92462 16.3516C10.2542 16.1423 10.6009 16.0237 10.9974 16.1128C11.5687 16.241 11.9392 16.5842 12.0652 17.1538C12.1939 17.737 11.9999 18.2295 11.5086 18.5619C10.3774 19.3273 9.12412 19.7908 7.76026 19.8611C6.70672 19.9156 5.64752 19.8719 4.59115 19.8719C4.59058 19.8844 4.59058 19.8969 4.59058 19.9099Z" fill="#7E756D"/>
</svg>
