<svg width="159" height="75" viewBox="0 0 159 75" fill="none" xmlns="http://www.w3.org/2000/svg">
<path fill-rule="evenodd" clip-rule="evenodd" d="M70.3689 40.6372C70.3689 40.6372 71.4265 28.58 75.2341 22.8687C75.2341 22.8687 73.1188 34.5028 70.3689 40.6372ZM103.368 59.2518C103.368 59.2518 96.8101 65.5977 95.964 67.9246C95.964 67.9246 94.0602 71.5206 95.5409 72.3667C95.5409 72.3667 97.4447 72.7898 99.9831 71.9436C99.9831 71.9436 102.521 71.7321 104.425 68.9822C104.425 68.9822 105.06 68.3476 104.637 65.8093C104.637 65.5977 103.579 60.521 103.368 59.2518ZM100.195 50.1561C100.195 50.1561 97.2332 52.0598 97.2332 52.4829C97.2332 52.9059 97.6563 52.6944 98.0793 52.6944C98.5024 52.6944 99.9831 52.2714 100.618 52.2714C101.252 52.2714 101.675 51.8483 102.098 51.8483C102.31 51.8483 102.521 52.4829 102.733 51.8483C102.733 51.2137 102.945 51.0022 102.733 50.5791C102.733 50.3676 102.521 50.1561 102.31 50.3676C102.098 50.3676 102.098 50.7906 101.887 50.7906C101.675 50.7906 101.464 50.3676 101.041 50.3676C100.829 50.1561 100.195 50.1561 100.195 50.1561ZM66.1383 49.5215C66.1383 49.5215 65.2921 49.5215 64.8691 49.733C64.8691 49.733 62.9653 51.2137 61.4846 54.1751C61.4846 54.1751 60.4269 56.2904 60.0039 57.7711V57.9827C59.5808 59.2518 60.2154 58.6173 60.4269 58.1942C60.4269 58.1942 62.1192 56.7135 63.1768 55.6558C64.023 54.5982 65.0806 52.9059 65.5037 52.0598C65.9267 51.2137 66.3498 50.3676 66.1383 49.5215ZM102.31 48.6753C102.31 48.6753 101.041 47.6177 100.618 47.4062C100.195 47.1946 99.7716 47.1946 98.9254 47.6177C98.0793 48.0407 95.1179 50.3676 94.4833 51.6368C94.4833 51.6368 94.2718 52.9059 95.5409 53.5405C95.5409 53.5405 96.5986 54.1751 97.0217 54.3867C97.4447 54.5982 99.7716 54.8097 101.041 54.3867C102.31 53.9636 102.733 54.1751 102.733 54.1751C102.733 54.1751 102.945 56.2904 103.156 56.925C103.156 56.925 101.675 58.6173 101.252 59.0403C100.829 59.4634 100.406 59.0403 99.7716 59.4634C99.137 60.098 94.4833 64.9632 93.8487 66.0208C93.0026 67.29 91.0988 70.0399 92.7911 72.1552C92.7911 72.1552 93.2141 73.6359 97.0217 73.8474C98.2908 74.0589 99.137 74.0589 99.3485 74.0589C99.9831 74.0589 99.7716 73.8474 101.041 73.6359C102.945 73.2128 104.637 72.3667 105.483 71.5206C106.329 70.886 108.021 70.0399 107.598 67.29C107.598 67.29 106.541 64.117 106.117 61.3671C105.906 58.8288 105.694 57.5596 105.694 57.5596C105.694 57.5596 107.387 55.8674 109.079 54.5982C110.771 53.329 111.829 52.2714 112.675 51.8483C113.521 51.4252 113.944 51.0022 113.944 51.0022C113.944 51.0022 113.309 53.9636 113.944 54.8097C114.367 55.4443 114.79 55.2328 115.213 55.4443C115.636 55.6558 115.848 55.8674 116.271 56.0789C116.694 56.2904 117.963 56.2904 118.598 55.2328C119.232 54.3866 120.078 53.1175 120.078 53.1175C120.078 53.1175 121.136 53.7521 122.405 54.1751C123.674 54.5982 125.79 54.1751 126.424 54.1751C126.424 54.1751 126.636 54.1751 127.27 54.5982C127.905 55.0212 128.751 55.2328 128.751 55.2328C128.751 55.2328 130.02 52.6944 130.443 51.0022C130.866 49.3099 132.136 45.0793 132.136 44.2332C132.136 43.3871 132.559 42.3294 132.559 42.1179C132.559 41.9064 132.77 42.1179 132.77 42.541C132.77 42.964 132.982 44.8678 132.77 45.7139C132.559 46.3485 131.29 49.5215 131.924 50.7906C131.924 50.7906 132.347 51.8483 133.405 52.0598C134.251 52.2714 134.463 52.6944 134.674 52.9059C135.097 53.1175 136.366 53.1175 137.001 52.6944C137.001 52.6944 140.174 51.4252 140.174 51.2137C140.174 51.0022 140.385 51.0022 140.385 51.0022C140.385 51.0022 140.808 51.8483 141.231 52.2714C141.866 52.6944 142.078 52.9059 142.712 53.1175C143.347 53.329 143.77 53.329 143.981 53.5405C144.404 53.7521 146.943 54.1751 148 53.9636C149.058 53.7521 149.693 53.329 150.116 53.329C150.75 53.5405 151.385 54.3867 152.02 54.5982C152.443 54.8097 153.077 55.0212 153.5 55.2328C153.923 55.4443 154.346 55.6558 155.192 55.6558C155.827 55.6558 157.096 55.4443 157.519 55.2328C157.942 55.2328 159 54.3867 159 54.3867C159 54.3867 158.365 54.5982 157.731 54.3867C156.885 54.1751 156.462 53.7521 156.462 53.7521C156.462 53.7521 156.25 54.1751 155.192 53.9636C154.135 53.7521 153.5 53.7521 153.289 53.5405C153.077 53.329 152.654 52.9059 153.289 52.6944C153.289 52.6944 154.135 52.4829 154.769 52.2714C155.404 52.0598 155.192 51.8483 155.192 51.8483L154.135 51.2137C154.135 51.2137 154.346 51.2137 153.712 51.2137C153.289 51.4252 152.866 51.4252 152.866 51.4252C152.866 51.4252 153.289 50.3676 153.289 49.9445L151.385 48.0407C151.385 48.0407 149.693 48.6753 149.904 51.6368C149.904 51.6368 146.52 52.0598 145.885 52.0598C145.039 52.0598 143.558 52.4829 143.558 51.0022C143.558 51.0022 143.77 49.5215 143.981 49.0984C144.193 48.6753 143.981 48.2523 143.558 48.2523C143.135 48.2523 142.924 48.0407 142.501 47.6177C142.078 47.1946 141.443 46.9831 141.02 47.6177C141.02 47.6177 140.385 48.6753 139.751 49.0984C139.328 49.3099 137.212 49.5215 136.578 50.1561C136.578 50.1561 135.732 50.7906 134.674 50.7906C134.674 50.7906 134.251 50.5791 134.886 48.0407C134.886 48.0407 135.943 44.8678 135.309 42.964C135.309 42.7525 135.309 42.7525 135.097 42.541C134.251 40.8487 133.193 40.0026 132.982 39.368C132.982 39.368 132.77 38.3104 132.982 37.0412C133.405 35.772 132.982 34.9259 132.347 34.2913C131.713 33.8682 131.501 33.4452 131.29 33.0221C131.29 33.0221 130.02 33.6567 130.02 35.3489C130.02 35.3489 130.232 36.8297 130.655 37.6758C130.655 37.6758 131.501 38.945 130.655 40.4257C130.655 40.4257 128.963 45.7139 128.54 46.56C128.117 47.4062 127.059 50.7906 127.059 51.2137C127.059 51.6368 126.636 53.1175 126.636 53.329C126.636 53.5405 126.424 53.329 126.213 53.329C126.001 53.1175 124.732 53.1175 124.098 52.9059C123.463 52.6944 121.982 52.9059 121.559 52.4829C121.559 52.2714 121.348 51.4252 121.136 51.2137C120.713 50.7906 120.29 50.3676 119.867 50.3676C119.655 50.1561 119.021 49.3099 118.598 49.5215C118.598 49.5215 118.175 50.3676 117.752 50.7906C117.54 51.2137 117.117 52.0598 117.117 52.2714C117.117 52.4829 116.694 52.9059 116.482 52.4829C116.482 52.0598 116.482 51.4252 116.694 50.5791C116.905 49.733 117.752 48.0407 117.963 47.8292C118.175 47.6177 118.598 46.7716 118.598 46.7716C118.598 46.7716 117.329 45.9254 117.117 45.7139C116.906 45.5024 116.059 45.0793 115.636 46.137L114.79 47.8292C114.79 47.8292 113.521 49.0984 112.886 49.5215C112.886 49.5215 109.079 52.4829 108.021 53.329C108.021 53.329 106.117 54.1751 105.483 53.7521C105.483 53.7521 105.271 50.7906 105.06 49.5215C105.06 49.5215 104.848 49.0984 104.425 48.6753C104.425 48.6753 103.791 48.0407 103.579 48.0407C103.579 47.8292 103.156 47.4062 103.156 47.6177C102.945 47.6177 102.733 47.6177 102.521 48.0407C102.521 48.2523 102.521 48.4638 102.31 48.6753C102.521 48.6753 102.31 48.6753 102.31 48.6753ZM60.85 60.9441H60.4269C60.4269 60.9441 58.9462 60.3095 58.3116 60.098C58.3116 60.098 57.0425 59.6749 57.4655 56.925C57.4655 56.925 59.1578 51.0022 62.3307 48.4638C62.3307 48.4638 63.1768 48.2523 63.5999 47.4062C64.023 46.7716 64.446 46.56 65.0806 46.7716C65.5037 46.9831 65.7152 47.4062 66.3498 47.8292C66.7728 48.2523 67.1959 48.8869 67.1959 48.6753C67.1959 48.4638 68.042 47.8292 68.042 47.1946C68.042 46.56 68.042 43.1756 68.042 41.2718C68.042 41.2718 68.4651 33.2336 70.3689 28.3685C70.3689 28.3685 73.1188 20.9649 74.1764 19.0611C74.1764 19.0611 74.811 18.0035 75.6571 18.4265C75.6571 18.4265 76.2917 19.2727 76.5032 19.2727C76.7148 19.2727 76.9263 19.2727 76.9263 19.4842C76.9263 19.4842 77.3493 23.9263 76.7148 27.0993C76.7148 27.0993 73.7533 37.8873 72.4842 41.4833C72.4842 41.4833 71.215 44.4447 70.7919 45.9254C70.7919 45.9254 70.1573 48.0407 70.3689 49.733C70.3689 49.733 71.215 53.7521 72.0611 54.3867C72.0611 54.3867 73.3303 55.2328 74.811 53.7521C74.811 53.7521 77.7724 51.2137 80.3108 46.9831C80.3108 46.9831 80.9454 45.7139 81.3684 45.5024C81.58 45.0793 81.7915 45.5024 81.7915 45.5024C81.7915 45.5024 84.1183 40.0026 84.7529 38.0988C85.3875 36.1951 87.2913 30.6953 87.7143 29.4261C88.1374 28.1569 89.195 25.1955 89.8296 24.1378C90.4642 23.2917 90.8873 22.0225 91.0988 21.388C91.3103 20.7534 92.368 19.6957 93.2141 20.5418C93.2141 20.5418 94.4833 20.7534 93.2141 24.1378C93.2141 24.1378 89.195 32.8106 88.3489 35.772C87.2913 38.7334 85.176 44.4447 84.5414 46.3485C83.9068 48.2523 82.6376 51.8483 82.4261 52.6944C82.2145 53.329 82.003 53.7521 82.8491 53.329C82.8491 53.329 84.3298 51.8483 84.9644 51.0022C85.599 50.1561 86.2336 49.5215 86.2336 49.3099C86.2336 49.0984 86.8682 49.0984 87.2913 49.5215C87.7143 49.9445 88.1374 50.1561 88.5604 50.5791C88.9835 50.5791 89.6181 51.2137 90.0412 51.6368C90.4642 52.0598 91.5219 52.9059 92.5795 53.1175C93.4256 53.329 95.1179 54.3867 96.5986 54.8097C96.5986 54.8097 91.3103 54.8097 87.9259 52.0598C87.9259 52.0598 86.0221 53.7521 85.176 54.5982C84.5414 55.4443 83.9068 56.0789 83.6953 56.0789C83.6953 56.2904 83.0607 57.1365 81.58 56.502C81.58 56.502 80.5223 55.8674 80.0993 55.8674C79.6762 55.8674 79.2531 55.2328 79.4647 53.9636C79.6762 52.6944 79.6762 52.2714 80.0993 51.4252C80.5223 50.5791 80.7338 49.733 80.7338 49.733L81.3684 47.8292C81.3684 47.8292 78.8301 52.4829 77.1378 54.3867C77.1378 54.3867 74.3879 57.7711 71.0034 55.4443C71.0034 55.4443 69.9458 54.3867 69.7343 53.5405C69.3112 52.6944 68.8882 51.6368 68.4651 51.2137C68.4651 51.2137 67.619 54.3867 65.5037 56.502C65.5037 56.502 62.7538 59.4634 62.3307 59.8864C61.9077 60.3095 61.4846 60.7326 60.85 60.9441ZM45.1968 55.8674C45.1968 55.8674 45.4083 53.7521 46.889 52.0598C48.3697 50.3676 50.485 49.0984 51.3311 48.4638C51.3311 48.4638 51.1196 49.0984 50.9081 49.5215C50.485 49.733 50.2735 51.0022 50.062 51.8483C50.062 52.9059 47.7351 55.6558 45.1968 55.8674ZM50.2735 45.7139C50.2735 45.7139 48.1582 47.6177 46.889 48.8869C45.4083 49.9445 43.293 51.8483 42.6584 55.0212C42.6584 55.0212 42.2353 56.502 45.1968 57.3481C45.1968 57.3481 46.6775 58.4057 48.7928 56.925C48.7928 56.925 50.485 55.8674 50.9081 55.4443C50.9081 55.4443 52.1773 58.1942 55.9848 57.7711V57.3481C55.9848 57.3481 51.9657 57.1365 53.658 51.0022C53.658 51.0022 52.6003 49.9445 51.9657 49.9445C51.9657 49.9445 51.9657 49.3099 52.1773 48.8869C51.9657 48.4638 52.6003 47.8292 52.6003 47.4062C52.6003 47.4062 51.1196 45.9254 50.2735 45.7139ZM34.1972 27.7339C34.1972 27.7339 35.4664 28.58 36.3125 28.7915C36.3125 28.7915 36.9471 29.2146 37.1586 27.9454V27.7339C37.3702 26.0416 38.6393 24.984 40.12 22.4456C40.12 22.4456 41.6008 19.9072 42.0238 19.4842C42.2353 18.8496 43.5045 16.7343 44.1391 16.0997C44.7737 15.4651 45.8314 13.5613 46.2544 12.7152C46.889 11.8691 47.7351 10.3884 48.1582 9.54228C48.5813 8.69615 49.6389 6.79238 50.062 5.94626C50.485 5.10014 51.3311 3.4079 51.3311 2.35025C51.3311 2.35025 51.1196 0.023422 48.5813 0.023422C48.5813 0.023422 46.2544 -0.399638 43.293 2.35025C43.293 2.35025 40.3316 4.88861 38.6393 7.00391C38.6393 7.00391 35.0433 11.446 34.4087 12.2922C34.4087 12.2922 32.2934 14.619 30.6012 18.6381C30.6012 18.6381 29.1205 22.4456 28.6974 24.3494C28.6974 24.3494 28.0628 27.7339 27.8513 29.6376C27.8513 29.6376 27.8513 33.0221 28.0628 34.7144C28.0628 34.7144 29.332 39.5795 30.8127 42.541C30.8127 42.541 32.2934 45.5024 32.7165 46.3485C32.7165 46.3485 35.0433 50.5791 35.0433 51.6368C35.0433 51.6368 35.6779 53.7521 35.2549 55.0212C35.2549 55.0212 34.8318 57.3481 32.505 58.8288C32.505 58.8288 30.3897 60.521 27.2167 61.1556C27.2167 61.1556 23.4092 62.4248 20.0247 62.8479C20.0247 62.8479 13.6788 63.694 11.1404 64.117C11.1404 64.117 5.85216 64.5401 3.94839 64.3286C3.94839 64.3286 3.10227 64.117 3.94839 63.2709C3.94839 63.2709 6.69828 60.521 9.44817 59.4634C9.44817 59.4634 8.39052 59.4634 7.75593 59.8864C7.12134 60.3095 7.33287 60.098 7.75593 59.6749C8.17899 59.2518 8.60205 58.8288 8.60205 58.6173C8.60205 58.4057 8.39052 58.4057 8.17899 58.6173C7.96746 58.8288 7.96746 58.6173 7.96746 58.4057C7.96746 58.4057 7.96746 58.1942 7.5444 58.4057C7.96746 58.6173 7.33287 58.6173 6.69828 59.2518C6.06369 59.6749 5.00604 60.521 5.21757 60.098C5.4291 59.6749 5.85216 59.0403 5.64063 59.0403C5.21757 59.2518 1.41002 61.3671 0.563904 63.4824V63.694C0.563904 64.3286 0.986964 65.5977 4.37145 66.2323C4.37145 66.2323 6.90981 66.6554 8.39052 66.4439C8.39052 66.4439 12.1981 66.4439 14.3134 66.0208C14.3134 66.0208 18.544 65.5977 20.6593 65.3862C22.7746 65.1747 27.4282 64.117 29.332 63.4824C31.2358 63.0594 33.3511 62.0017 35.4664 60.3095C37.5817 58.6172 38.2163 57.1365 38.6393 55.4443C39.0624 53.9636 38.2163 51.6368 37.7932 50.5791C37.3702 49.5215 35.6779 45.9254 34.6203 44.0217C33.3511 42.1179 32.928 39.7911 32.505 38.5219C32.0819 37.2527 31.0243 34.2913 31.2358 32.176C31.4473 30.0607 31.4473 27.5223 31.8704 25.8301C32.2934 24.1378 32.7165 22.6571 33.1395 21.1764C33.3511 19.6957 35.6779 15.6766 36.3125 14.619C37.1586 13.5613 39.0624 11.023 40.3316 9.33074C41.6008 7.6385 43.5045 5.31167 44.9852 4.04249C46.466 2.98484 47.7351 1.92719 48.5813 1.92719C48.5813 1.92719 49.2158 1.71566 49.0043 2.35025C49.0043 2.35025 48.1582 4.67708 47.3121 5.94626C46.2544 7.21544 45.4083 9.11922 44.1391 10.8115C44.1391 10.8115 40.5431 16.0997 39.9085 17.1574C39.2739 18.215 36.7356 22.4456 35.8894 23.7148C35.2549 24.984 34.4087 26.8877 34.1972 27.7339Z" fill="#28231E"/>
</svg>
