<svg width="25" height="23" viewBox="0 0 25 23"  xmlns="http://www.w3.org/2000/svg">
<path d="M16.2606 0C15.7435 0.0147 15.3448 0.230132 15.0213 0.609292C14.3747 1.3666 13.5387 1.76705 12.5263 1.77414C11.5254 1.78124 10.6889 1.40309 10.0251 0.672654C9.38429 -0.0324415 8.84888 -0.156125 7.94244 0.187045C6.71141 0.653392 5.59101 1.30019 4.57393 2.11782C4.00147 2.57758 3.82874 3.18281 4.07088 3.86358C4.76754 5.82021 3.62626 7.72716 1.52427 8.11747C0.755074 8.26041 0.334467 8.68114 0.188351 9.43844C-0.0777893 10.8142 -0.0563946 12.1884 0.212877 13.56C0.339685 14.2068 0.858398 14.6777 1.54045 14.7812C3.71393 15.1116 4.91261 17.1017 4.14445 19.105C3.88197 19.7898 4.04739 20.4168 4.62038 20.8781C5.60301 21.6689 6.6874 22.2954 7.86781 22.7643C8.55352 23.0365 9.25957 22.8677 9.70888 22.2908C11.0615 20.5527 13.7172 20.6019 14.9983 22.3603C15.446 22.9747 16.1422 23.1455 16.8702 22.8768C18.1544 22.4034 19.326 21.7424 20.3874 20.8959C20.9698 20.4315 21.1169 19.7802 20.8038 19.0508C20.0414 17.2756 20.9979 15.3007 22.8839 14.7685C23.1072 14.7056 23.3415 14.6752 23.5717 14.6372C24.2302 14.5292 24.7338 14.0375 24.8413 13.3958C25.0699 12.0257 25.0495 10.6591 24.7818 9.29601C24.6373 8.561 24.1316 8.10784 23.3462 8.00747C21.6111 7.78596 20.3999 6.41328 20.4777 4.72125C20.4933 4.38264 20.5893 4.03947 20.6994 3.71455C20.9411 2.99982 20.7699 2.37431 20.1625 1.91101C19.1517 1.14052 18.0427 0.540353 16.8383 0.106956C16.7329 0.0689382 16.6233 0.0395381 16.5132 0.0182483C16.4292 0.00253449 16.341 0.00506898 16.2606 0ZM8.33069 11.5182C8.30199 9.34011 10.1551 7.47827 12.3812 7.44785C14.7384 7.41592 16.6374 9.18854 16.6635 11.4453C16.6891 13.6523 14.8517 15.5111 12.6135 15.542C10.2479 15.575 8.36096 13.8018 8.33069 11.5182Z" fill="#7E756D"/>
</svg>
