<svg width="24" height="24" viewBox="0 0 24 24" fill="none" xmlns="http://www.w3.org/2000/svg">
<path d="M23.9983 8.11786L23.9997 2.05959C23.9997 1.5583 23.394 1.30694 23.0392 1.66146L20.8318 3.86971L20.4769 3.51472C18.2114 1.24832 15.1987 0 11.9947 0C4.9943 0 -0.625191 6.0306 0.0554474 13.1717C0.598271 18.8641 5.13352 23.4012 10.8238 23.9437C17.5205 24.5824 23.2398 19.674 23.9219 13.2823C23.995 12.5972 23.4559 11.9998 22.7668 11.9998C22.1706 11.9998 21.676 12.4523 21.6118 13.046C21.0938 17.8437 17.0569 21.6018 12.1429 21.6764C6.79902 21.757 2.37159 17.4386 2.3219 12.0917C2.2708 6.61209 6.79621 2.15713 12.2994 2.32736C14.7825 2.40427 17.1361 3.45704 18.8925 5.21464L19.1902 5.51242L16.9828 7.72067C16.6284 8.07519 16.8797 8.68153 17.3808 8.68153L23.4362 8.68059C23.7465 8.68012 23.9983 8.4283 23.9983 8.11786Z" fill="#F5F0E5"/>
<path d="M11.9953 10.8386V8.90323C11.9953 8.26171 11.4755 7.74213 10.8347 7.74213C10.1934 7.74213 9.67403 8.26218 9.67403 8.90323V12.2937C9.67403 13.414 10.582 14.3228 11.7023 14.3228H15.0915C15.7327 14.3228 16.2521 13.8027 16.2521 13.1617C16.2521 12.5202 15.7323 12.0006 15.0915 12.0006H13.1569C12.5152 11.9997 11.9953 11.4796 11.9953 10.8386Z" fill="#F5F0E5"/>
</svg>
