<svg width="27" height="27" viewBox="0 0 27 27" fill="none" xmlns="http://www.w3.org/2000/svg">
<path d="M5.79261 0C5.95096 0 6.10983 0 6.26818 0C6.86078 0.247794 7.08161 0.700058 7.01912 1.32298C6.99741 1.53801 7.01595 1.75728 7.01595 1.98764C11.0376 1.98764 15.0296 1.98764 19.0518 1.98764C19.0518 1.72241 19.0449 1.46933 19.0539 1.21731C19.0602 1.0345 19.065 0.846938 19.1116 0.672055C19.2053 0.319649 19.4982 0.151107 19.7995 0C19.9579 0 20.1167 0 20.2751 0C20.8693 0.222433 21.1039 0.659903 21.0599 1.27701C21.0435 1.51001 21.0573 1.74512 21.0573 2.0019C21.5281 2.0019 21.9671 1.99239 22.4051 2.0056C22.6852 2.01405 22.9712 2.02726 23.2434 2.08802C24.9656 2.47371 26.0666 3.9087 26.0661 5.73466C26.0645 10.2251 26.0671 14.716 26.0655 19.2064C26.065 20.6826 26.1037 22.1609 26.0401 23.6345C25.958 25.5418 24.3899 26.9948 22.4813 26.9963C16.1835 27.0021 9.88522 27.0016 3.58743 26.9905C3.20719 26.99 2.8116 26.9197 2.44936 26.8019C0.936347 26.3095 0.00587117 24.9601 0.00428242 23.2937C0.000575348 19.506 0.00163451 15.7183 0.00163451 11.9311C0.00163451 9.83938 -0.00366131 7.74819 0.004812 5.65647C0.0122261 3.88123 1.12647 2.4436 2.82589 2.09806C3.42114 1.97707 4.05135 2.02832 4.66619 2.00243C4.77634 1.99767 4.88703 2.0019 5.01095 2.0019C5.01095 1.7335 5.02419 1.5042 5.0083 1.27754C4.96488 0.661489 5.19683 0.221377 5.79261 0ZM5.01095 4.00486C4.56663 4.00486 4.15462 4.00433 3.7426 4.00486C2.65855 4.00644 2.00875 4.6431 2.00822 5.71828C2.00557 11.5713 2.00504 17.4243 2.0061 23.2773C2.0061 24.3467 2.66543 24.9965 3.73995 24.9965C6.35609 24.9971 8.97222 24.996 11.5884 24.996C15.1911 24.996 18.7938 24.9971 22.3966 24.9965C23.1867 24.9965 23.8079 24.5512 23.9943 23.8347C24.0489 23.6255 24.0589 23.4004 24.0589 23.1822C24.0627 18.9988 24.0616 14.8159 24.0616 10.6324C24.0616 8.98927 24.0637 7.34559 24.0605 5.70243C24.0589 4.83489 23.5961 4.17129 22.8054 4.05611C22.2404 3.97369 21.6541 4.04026 21.0562 4.04026C21.0562 4.34406 21.061 4.64997 21.0552 4.95588C21.044 5.5545 20.6151 6.00095 20.0564 6.00306C19.485 6.00465 19.0576 5.55502 19.0518 4.94162C19.0486 4.63676 19.0512 4.33243 19.0512 4.02229C15.0248 4.02229 11.0312 4.02229 7.01701 4.02229C7.01701 4.33719 7.01859 4.63412 7.01648 4.93105C7.01224 5.54816 6.59175 6.00095 6.02245 6.00412C5.4558 6.00729 5.02207 5.55397 5.01148 4.94056C5.00671 4.64204 5.01095 4.34353 5.01095 4.00486Z" fill="#7E756D"/>
<path d="M15.9839 15.9613C15.8685 15.9301 15.7795 15.9079 15.6916 15.8825C14.356 15.4916 13.435 14.2415 13.4689 12.8657C13.5049 11.4207 14.4698 10.2092 15.8462 9.87683C17.7464 9.41876 19.3806 10.7169 19.6788 12.4287C19.8366 13.3338 19.6995 14.2283 19.4437 15.0979C18.8299 17.186 17.4175 18.4915 15.3744 19.1646C15.1133 19.2507 14.8697 19.2502 14.6531 19.0653C14.3676 18.8217 14.3554 18.426 14.5922 18.1164C14.9163 17.6926 15.2377 17.2657 15.5327 16.8214C15.708 16.5578 15.8309 16.2587 15.9839 15.9613Z" fill="#7E756D"/>
<path d="M8.84772 15.9853C8.56545 15.8817 8.32343 15.812 8.09783 15.7068C6.87238 15.1388 6.17703 13.8338 6.35921 12.4633C6.53027 11.1763 7.56242 10.0974 8.84348 9.84641C10.7542 9.47234 12.3705 10.8376 12.5458 12.5241C12.819 15.1536 11.6349 17.9185 8.56863 19.0507C8.42935 19.102 8.28795 19.149 8.14549 19.1918C7.8521 19.28 7.56295 19.1786 7.39666 18.9334C7.22931 18.6872 7.24679 18.3898 7.43638 18.1435C7.69746 17.8054 7.97549 17.4778 8.20851 17.1212C8.44523 16.7588 8.63588 16.3662 8.84772 15.9853Z" fill="#7E756D"/>
</svg>
