<svg width="41" height="41" viewBox="0 0 41 41" fill="none" xmlns="http://www.w3.org/2000/svg">
<path d="M20.0606 40.1625C8.94424 40.1625 0 31.0905 0 20.1019C0 8.9855 8.94424 0.0412598 20.0606 0.0412598C31.177 0.0412598 40.1213 8.9855 40.1213 20.1019C40.1213 31.0905 31.0493 40.1625 20.0606 40.1625Z" fill="#1DA1F2"/>
<path d="M15.3343 30.3236C24.7896 30.3236 29.9006 22.5293 29.9006 15.7573C29.9006 15.5017 29.9006 15.374 29.9006 15.1184C30.9228 14.3518 31.8172 13.4573 32.4561 12.4351C31.6894 12.6907 30.6672 12.9462 29.6451 13.074C30.6672 12.4351 31.4339 11.5407 31.8172 10.263C30.9228 10.9018 29.7728 11.2852 28.6229 11.5407C27.7284 10.5185 26.3229 9.87964 24.9174 9.87964C22.1063 9.87964 19.8064 12.1796 19.8064 14.9906C19.8064 15.374 19.8064 15.7573 19.9342 16.1406C15.5898 16.0128 11.7566 13.9684 9.20108 10.9018C8.81776 11.5407 8.56221 12.4351 8.56221 13.4573C8.56221 15.2462 9.45663 16.7795 10.8622 17.6739C9.96773 17.6739 9.20108 17.4184 8.56221 17.035C8.56221 17.035 8.56221 17.035 8.56221 17.1628C8.56221 19.5905 10.3511 21.7627 12.651 22.146C12.2677 22.2738 11.7566 22.4016 11.2455 22.4016C10.8622 22.4016 10.6066 22.4016 10.2233 22.2738C10.8622 24.3182 12.7788 25.8515 15.0787 25.8515C13.2899 27.257 11.1177 28.0237 8.68998 28.0237C8.30666 28.0237 7.92333 28.0237 7.41223 27.8959C9.83995 29.4292 12.5232 30.3236 15.3343 30.3236Z" fill="white"/>
</svg>
