<svg width="40" height="40" viewBox="0 0 40 40" fill="none" xmlns="http://www.w3.org/2000/svg">
<path d="M20 40C31.0457 40 40 31.0457 40 20C40 8.9543 31.0457 0 20 0C8.9543 0 0 8.9543 0 20C0 31.0457 8.9543 40 20 40Z" fill="#FF0000"/>
<path d="M33.6875 13.125C33.375 11.875 32.375 10.9375 31.1875 10.625C28.9375 10 20 10 20 10C20 10 11.0625 10 8.8125 10.625C7.5625 10.9375 6.625 11.9375 6.3125 13.125C5.6875 15.375 5.6875 20 5.6875 20C5.6875 20 5.6875 24.625 6.3125 26.875C6.625 28.125 7.625 29.0625 8.8125 29.375C11.0625 30 20 30 20 30C20 30 28.9375 30 31.1875 29.375C32.4375 29.0625 33.375 28.0625 33.6875 26.875C34.3125 24.625 34.3125 20 34.3125 20C34.3125 20 34.3125 15.375 33.6875 13.125Z" fill="white"/>
<path d="M17.125 24.3125L24.5625 20L17.125 15.6875V24.3125Z" fill="#FF0000"/>
</svg>
